<?xml version="1.0" encoding="utf-8"?>
<svg viewBox="349.687 217.956 20 18" xmlns="http://www.w3.org/2000/svg" >
  <path d="M 357.687 234.956 L 361.687 229.956 L 358.687 229.956 L 358.687 218.956 L 356.687 218.956 L 356.687 229.956 L 353.687 229.956 L 357.687 234.956 Z" style="transform-origin: 357.687px 226.956px;" transform="matrix(0, -1, 1, 0, -0.000013310771, 0.000008711871)"/>
  <path d="M 370.187 220.456 L 366.187 220.456 L 366.187 222.456 L 370.187 222.456 L 370.187 231.456 L 356.187 231.456 L 356.187 222.456 L 360.187 222.456 L 360.187 220.456 L 356.187 220.456 C 355.084 220.456 354.187 221.353 354.187 222.456 L 354.187 231.456 C 354.187 232.559 355.084 233.456 356.187 233.456 L 370.187 233.456 C 371.29 233.456 372.187 232.559 372.187 231.456 L 372.187 222.456 C 372.187 221.353 371.29 220.456 370.187 220.456 Z" style="transform-origin: 363.187px 226.956px;" transform="matrix(0, -1, 1, 0, -0.00001322879, 0.000024052598)"/>
</svg>