<svg xmlns:xlink="http://www.w3.org/1999/xlink"  xmlns="http://www.w3.org/2000/svg" viewBox="0 0 16 16" style="background: transparent !important; border: none !important; border-collapse: separate !important; border-spacing: 0px !important; border-radius: 0px !important; inset: auto !important; box-shadow: none !important; box-sizing: border-box !important; caption-side: top !important; caret-color: auto !important; color: inherit !important; cursor: inherit !important; display: initial !important; direction: inherit !important; empty-cells: show !important; float: none !important; font-family: inherit !important; font-size: inherit !important; font-style: normal !important; font-variant: normal !important; font-weight: 400 !important; height: auto !important; letter-spacing: normal !important; line-break: normal !important; line-height: inherit !important; margin: 0px !important; opacity: 1 !important; orphans: 2 !important; outline: none !important; overflow: hidden !important; padding: 0px !important; paint-order: normal !important; perspective: none !important; pointer-events: inherit !important; position: relative !important; quotes: none !important; resize: none !important; rotate: none !important; scale: 1 !important; text-align: left !important; text-decoration: none !important; text-indent: 0px !important; text-transform: none !important; transform: initial !important; transform-box: content-box !important; transform-origin: center center !important; transform-style: flat !important; transition: all 0.25s ease 0s !important; user-select: none !important; vertical-align: top !important; visibility: visible !important; white-space: nowrap !important; word-break: normal !important; word-spacing: normal !important; writing-mode: horizontal-tb !important; z-index: auto !important;"><path d="M9.23092 2.9917C9.05307 2.99606 8.88128 3.0572 8.74067 3.16618C8.60005 3.27516 8.49798 3.42626 8.44937 3.59739L5.94844 11.9338C5.91699 12.0391 5.90661 12.1495 5.91788 12.2588C5.92916 12.3681 5.96188 12.4741 6.01416 12.5707C6.06645 12.6673 6.13728 12.7527 6.2226 12.8219C6.30791 12.8912 6.40604 12.9429 6.51137 12.9741C6.6167 13.0054 6.72716 13.0156 6.83642 13.0041C6.94569 12.9926 7.05162 12.9597 7.14815 12.9072C7.24468 12.8548 7.32991 12.7838 7.39897 12.6983C7.46803 12.6129 7.51957 12.5146 7.55063 12.4092L10.0516 4.07283C10.091 3.94605 10.0996 3.81168 10.0767 3.68091C10.0537 3.55014 9.99985 3.42674 9.91958 3.32099C9.8393 3.21523 9.73493 3.13018 9.61515 3.0729C9.49536 3.01563 9.36363 2.98778 9.23092 2.9917ZM4.62635 3.61693C4.409 3.63061 4.20564 3.72879 4.05974 3.89047L0.725169 7.43345C0.580498 7.58794 0.5 7.79167 0.5 8.00333C0.5 8.21498 0.580498 8.41871 0.725169 8.5732L4.05974 12.1162C4.13208 12.2049 4.2219 12.2778 4.32362 12.3302C4.42534 12.3827 4.53678 12.4137 4.65099 12.4212C4.76521 12.4288 4.87975 12.4127 4.98748 12.374C5.09522 12.3354 5.19384 12.2749 5.2772 12.1965C5.36056 12.1181 5.42688 12.0233 5.47202 11.9181C5.51717 11.813 5.54017 11.6996 5.5396 11.5851C5.53903 11.4707 5.5149 11.3576 5.4687 11.2529C5.42251 11.1481 5.35525 11.054 5.27111 10.9764L2.47061 8.00657L5.27111 5.03023C5.38805 4.90983 5.46592 4.75693 5.49455 4.59155C5.52318 4.42617 5.50123 4.25601 5.43156 4.1033C5.3619 3.9506 5.24777 3.82248 5.1041 3.7357C4.96044 3.64892 4.79393 3.60753 4.62635 3.61693ZM11.3541 3.61693C11.1882 3.61169 11.0245 3.6561 10.884 3.74446C10.7435 3.83283 10.6325 3.96113 10.5654 4.11293C10.4982 4.26474 10.4779 4.43313 10.507 4.59655C10.5362 4.75997 10.6134 4.91098 10.7289 5.03023L13.5294 8.00657L10.7289 10.9764C10.6447 11.054 10.5775 11.1481 10.5313 11.2529C10.4851 11.3576 10.461 11.4707 10.4604 11.5851C10.4598 11.6996 10.4828 11.813 10.528 11.9181C10.5731 12.0233 10.6394 12.1181 10.7228 12.1965C10.8062 12.2749 10.9048 12.3354 11.0125 12.374C11.1203 12.4127 11.2348 12.4288 11.349 12.4212C11.4632 12.4137 11.5747 12.3827 11.6764 12.3302C11.7781 12.2778 11.8679 12.2049 11.9403 12.1162L15.2748 8.5732C15.4195 8.41871 15.5 8.21498 15.5 8.00333C15.5 7.79167 15.4195 7.58794 15.2748 7.43345L11.9403 3.89047C11.8657 3.80813 11.7755 3.74151 11.6748 3.69454C11.5741 3.64756 11.4651 3.62118 11.3541 3.61693Z" fill="#000000"></path></svg>