<svg xmlns:xlink="http://www.w3.org/1999/xlink"  xmlns="http://www.w3.org/2000/svg" viewBox="0 0 16 16" style="background: transparent !important; border: none !important; border-collapse: separate !important; border-spacing: 0px !important; border-radius: 0px !important; inset: auto !important; box-shadow: none !important; box-sizing: border-box !important; caption-side: top !important; caret-color: auto !important; color: inherit !important; cursor: inherit !important; display: initial !important; direction: inherit !important; empty-cells: show !important; float: none !important; font-family: inherit !important; font-size: inherit !important; font-style: normal !important; font-variant: normal !important; font-weight: 400 !important; height: auto !important; letter-spacing: normal !important; line-break: normal !important; line-height: inherit !important; margin: 0px !important; opacity: 1 !important; orphans: 2 !important; outline: none !important; overflow: hidden !important; padding: 0px !important; paint-order: normal !important; perspective: none !important; pointer-events: inherit !important; position: relative !important; quotes: none !important; resize: none !important; rotate: none !important; scale: 1 !important; text-align: left !important; text-decoration: none !important; text-indent: 0px !important; text-transform: none !important; transform: initial !important; transform-box: content-box !important; transform-origin: center center !important; transform-style: flat !important; transition: all 0.25s ease 0s !important; user-select: none !important; vertical-align: top !important; visibility: visible !important; white-space: nowrap !important; word-break: normal !important; word-spacing: normal !important; writing-mode: horizontal-tb !important; z-index: auto !important;"><path d="M6.36695 2.00028C5.95596 1.99154 5.61918 2.18975 5.57649 2.48841L5.27396 4.60461L3.27463 4.60703C2.95211 4.60743 2.6927 5.03389 2.69325 5.56334C2.69381 6.09279 2.95388 6.51895 3.2764 6.51857L5.00089 6.51641L4.57544 9.49131L2.58088 9.49401C2.25836 9.49441 1.99945 9.9206 2 10.45C2.00055 10.9795 2.26037 11.4056 2.58289 11.4053L4.30235 11.4031L4.04214 13.2224C3.99334 13.5637 4.34754 13.9028 4.83637 13.9829C5.3252 14.063 5.75789 13.8529 5.80668 13.5115L6.10821 11.401L8.91942 11.3975L8.6587 13.2225C8.60991 13.5638 8.96411 13.9029 9.45294 13.983C9.94177 14.0631 10.3747 13.8529 10.4235 13.5116L10.726 11.3954L12.7254 11.3929C13.0479 11.3925 13.3073 10.9664 13.3067 10.4369C13.3062 9.90747 13.0461 9.48131 12.7236 9.48169L10.9991 9.48385L11.4246 6.50867L13.4191 6.50624C13.7416 6.50584 14.0006 6.07939 14 5.54994C13.9994 5.02049 13.7396 4.5946 13.4171 4.59499L11.6976 4.59714L11.9579 2.77755C12.0067 2.43623 11.6527 2.09714 11.1639 2.01704C10.6751 1.93694 10.2421 2.14712 10.1933 2.48845L9.89179 4.59898L7.08058 4.60249L7.3413 2.7775C7.39009 2.43619 7.03589 2.09709 6.54706 2.01699C6.48596 2.00698 6.42567 2.00152 6.36695 2.00027V2.00028ZM9.61822 6.51075L9.19276 9.48593L6.38181 9.48944L6.80726 6.51426L9.61822 6.51075V6.51075Z" fill="#000000"></path></svg>