<svg xmlns:xlink="http://www.w3.org/1999/xlink"  xmlns="http://www.w3.org/2000/svg" viewBox="0 0 13 12" style="background: transparent !important; border: none !important; border-collapse: separate !important; border-spacing: 0px !important; border-radius: 0px !important; inset: auto !important; box-shadow: none !important; box-sizing: border-box !important; caption-side: top !important; caret-color: auto !important; color: inherit !important; cursor: inherit !important; display: initial !important; direction: inherit !important; empty-cells: show !important; float: none !important; font-family: inherit !important; font-size: inherit !important; font-style: normal !important; font-variant: normal !important; font-weight: 400 !important; height: auto !important; letter-spacing: normal !important; line-break: normal !important; line-height: inherit !important; margin: 0px !important; opacity: 1 !important; orphans: 2 !important; outline: none !important; overflow: hidden !important; padding: 0px !important; paint-order: normal !important; perspective: none !important; pointer-events: inherit !important; position: relative !important; quotes: none !important; resize: none !important; rotate: none !important; scale: 1 !important; text-align: left !important; text-decoration: none !important; text-indent: 0px !important; text-transform: none !important; transform: initial !important; transform-box: content-box !important; transform-origin: center center !important; transform-style: flat !important; transition: all 0.25s ease 0s !important; user-select: none !important; vertical-align: top !important; visibility: visible !important; white-space: nowrap !important; word-break: normal !important; word-spacing: normal !important; writing-mode: horizontal-tb !important; z-index: auto !important;"><path d="M5.19897 2C4.92283 2 4.69897 2.22386 4.69897 2.5V3H8.19897C9.0274 3 9.69897 3.67157 9.69897 4.5V8H10.199C10.4751 8 10.699 7.77614 10.699 7.5V2.5C10.699 2.22386 10.4751 2 10.199 2H5.19897ZM9.69897 9H10.199C11.0274 9 11.699 8.32843 11.699 7.5V2.5C11.699 1.67157 11.0274 1 10.199 1H5.19897C4.37054 1 3.69897 1.67157 3.69897 2.5V3H3.19897C2.37055 3 1.69897 3.67157 1.69897 4.5V9.5C1.69897 10.3284 2.37055 11 3.19897 11H8.19897C9.0274 11 9.69897 10.3284 9.69897 9.5V9ZM2.69897 4.5C2.69897 4.22386 2.92283 4 3.19897 4H8.19897C8.47512 4 8.69897 4.22386 8.69897 4.5V9.5C8.69897 9.77614 8.47512 10 8.19897 10H3.19897C2.92283 10 2.69897 9.77614 2.69897 9.5V4.5Z" fill="#000000"></path></svg>