<svg xmlns:xlink="http://www.w3.org/1999/xlink"  xmlns="http://www.w3.org/2000/svg" viewBox="0 0 16 16" style="background: transparent !important; border: none !important; border-collapse: separate !important; border-spacing: 0px !important; border-radius: 0px !important; inset: auto !important; box-shadow: none !important; box-sizing: border-box !important; caption-side: top !important; caret-color: auto !important; color: inherit !important; cursor: inherit !important; display: initial !important; direction: inherit !important; empty-cells: show !important; float: none !important; font-family: inherit !important; font-size: inherit !important; font-style: normal !important; font-variant: normal !important; font-weight: 400 !important; height: auto !important; letter-spacing: normal !important; line-break: normal !important; line-height: inherit !important; margin: 0px !important; opacity: 1 !important; orphans: 2 !important; outline: none !important; overflow: hidden !important; padding: 0px !important; paint-order: normal !important; perspective: none !important; pointer-events: inherit !important; position: relative !important; quotes: none !important; resize: none !important; rotate: none !important; scale: 1 !important; text-align: left !important; text-decoration: none !important; text-indent: 0px !important; text-transform: none !important; transform: initial !important; transform-box: content-box !important; transform-origin: center center !important; transform-style: flat !important; transition: all 0.25s ease 0s !important; user-select: none !important; vertical-align: top !important; visibility: visible !important; white-space: nowrap !important; word-break: normal !important; word-spacing: normal !important; writing-mode: horizontal-tb !important; z-index: auto !important;"><path d="M15.5071 11.8176C15.4431 11.6 15.1263 11.4464 15.1263 11.4464C15.0975 11.4304 15.0719 11.4176 15.0495 11.4048C14.5247 11.152 14.0639 10.848 13.6703 10.5024C13.3567 10.224 13.0879 9.92001 12.8703 9.59361C12.6079 9.19681 12.4831 8.86401 12.4287 8.68481C12.3999 8.56641 12.4031 8.52162 12.4287 8.46081C12.4479 8.40962 12.5087 8.36162 12.5375 8.33922C12.7135 8.21442 12.9983 8.02881 13.1743 7.91681C13.3247 7.81762 13.4559 7.73442 13.5327 7.68002C13.7791 7.50722 13.9455 7.33441 14.0447 7.14562C14.1727 6.90242 14.1887 6.63362 14.0895 6.36801C13.9551 6.01281 13.6223 5.79841 13.1999 5.79841C13.1071 5.79841 13.0079 5.80801 12.9119 5.83041C12.6687 5.88161 12.4383 5.96801 12.2463 6.04481C12.2335 6.05121 12.2175 6.03841 12.2175 6.02562C12.2367 5.54881 12.2591 4.90881 12.2079 4.30081C12.1599 3.75041 12.0479 3.28642 11.8623 2.88321C11.6767 2.47681 11.4335 2.17601 11.2447 1.95841C11.0623 1.75041 10.7487 1.44641 10.2687 1.17441C9.59667 0.790415 8.82867 0.595215 7.99347 0.595215C7.15827 0.595215 6.39347 0.790415 5.71827 1.17441C5.21267 1.46241 4.88947 1.78881 4.74227 1.95841C4.55347 2.17601 4.31027 2.47681 4.12467 2.88321C3.93907 3.28642 3.82707 3.75041 3.77907 4.30081C3.72787 4.91201 3.74707 5.50081 3.76947 6.02562C3.76947 6.04162 3.75347 6.05121 3.74067 6.04481C3.54867 5.97121 3.31827 5.88481 3.07827 5.83041C2.98227 5.80801 2.88627 5.79841 2.79027 5.79841C2.36787 5.79841 2.03507 6.01281 1.90067 6.36801C1.80147 6.63362 1.81427 6.90242 1.94547 7.14562C2.04467 7.33441 2.21427 7.51042 2.45747 7.68002C2.53427 7.73442 2.66227 7.81762 2.81587 7.91681C2.98547 8.02881 3.26387 8.20801 3.43987 8.33281C3.46227 8.34881 3.53587 8.40641 3.56147 8.46402C3.58707 8.52802 3.59027 8.57281 3.55827 8.69761C3.50387 8.88001 3.37907 9.20642 3.11987 9.59682C2.90227 9.92321 2.63347 10.2272 2.31987 10.5056C1.93587 10.848 1.47187 11.152 0.950272 11.408C0.924672 11.4208 0.895872 11.4336 0.863872 11.4528C0.863872 11.4528 0.550272 11.6128 0.492672 11.8176C0.406272 12.1216 0.636672 12.4064 0.873472 12.56C1.26067 12.8096 1.73427 12.944 2.00627 13.0176C2.08307 13.0368 2.15027 13.056 2.21427 13.0752C2.25267 13.088 2.35187 13.1264 2.39347 13.1808C2.44787 13.248 2.45427 13.3344 2.47347 13.4304C2.50227 13.5904 2.56947 13.7888 2.76787 13.9264C2.98547 14.0768 3.26387 14.0864 3.61267 14.1024C3.98067 14.1152 4.43827 14.1344 4.95987 14.3072C5.20307 14.3872 5.42067 14.5216 5.67667 14.6784C6.20787 15.0048 6.86707 15.4112 7.99667 15.4112C9.12627 15.4112 9.79187 15.0016 10.3263 14.6752C10.5791 14.5216 10.7967 14.3872 11.0335 14.3072C11.5551 14.1344 12.0127 14.1184 12.3807 14.1024C12.7327 14.0896 13.0079 14.08 13.2255 13.9264C13.4367 13.7792 13.5007 13.5616 13.5263 13.3952C13.5423 13.3152 13.5519 13.2416 13.5999 13.1808C13.6383 13.1296 13.7311 13.0944 13.7727 13.0784C13.8367 13.0592 13.9071 13.04 13.9871 13.0176C14.2623 12.944 14.6047 12.8576 15.0207 12.6208C15.5263 12.3392 15.5615 11.9904 15.5071 11.8176Z" fill="white"></path><path d="M15.9424 11.6482C15.8304 11.3442 15.6192 11.1842 15.3792 11.0498C15.3344 11.0242 15.2928 11.0018 15.2576 10.9858C15.1872 10.9474 15.1136 10.9122 15.04 10.8738C14.288 10.4738 13.7024 9.9714 13.2928 9.3762C13.1552 9.1746 13.0592 8.9922 12.992 8.845C12.9568 8.7458 12.96 8.6882 12.9824 8.637C13.0016 8.5986 13.0528 8.557 13.0784 8.5378C13.2064 8.4514 13.3408 8.365 13.4304 8.3074C13.5904 8.2018 13.7184 8.1218 13.8016 8.0642C14.1088 7.8498 14.3264 7.6194 14.4608 7.3634C14.6496 7.0018 14.6752 6.589 14.528 6.2018C14.3232 5.6642 13.8144 5.3282 13.2 5.3282C13.072 5.3282 12.944 5.341 12.8128 5.3698C12.7776 5.3762 12.7456 5.3858 12.7136 5.3922C12.72 5.0274 12.7104 4.637 12.6784 4.253C12.5632 2.909 12.0928 2.205 11.6 1.6418C11.3952 1.4082 11.04 1.0658 10.5056 0.7586C9.76319 0.3394 8.92159 0.125 7.99999 0.125C7.08159 0.125 6.23999 0.3394 5.49439 0.765C4.95679 1.0722 4.60159 1.4146 4.39679 1.6482C3.90719 2.2082 3.43679 2.9154 3.31839 4.2594C3.28639 4.6402 3.27679 5.0306 3.28319 5.3986C3.25119 5.389 3.21599 5.3826 3.18399 5.3762C3.05599 5.3474 2.92479 5.3346 2.79679 5.3346C2.17919 5.3346 1.67039 5.6674 1.46879 6.2082C1.32159 6.5954 1.34719 7.0082 1.53599 7.3698C1.67039 7.6258 1.88799 7.8562 2.19519 8.0706C2.27839 8.1282 2.40639 8.2114 2.56639 8.3138C2.65279 8.3714 2.78079 8.4514 2.90559 8.5346C2.92479 8.5474 2.99199 8.5954 3.01439 8.6434C3.03999 8.6978 3.03999 8.7554 3.00159 8.861C2.93439 9.0082 2.84159 9.1842 2.70719 9.3826C2.31039 9.965 1.73759 10.4578 1.01119 10.8546C0.627191 11.0594 0.223991 11.1938 0.054391 11.6546C-0.073609 12.0034 0.009591 12.397 0.335991 12.7298C0.441591 12.845 0.575991 12.9474 0.745591 13.0402C1.14239 13.261 1.48159 13.3666 1.74719 13.4402C1.79519 13.453 1.90079 13.4882 1.94879 13.5298C2.06719 13.6322 2.05119 13.789 2.20799 14.0162C2.30399 14.157 2.41279 14.253 2.50239 14.317C2.83199 14.5442 3.20319 14.5602 3.59679 14.573C3.95199 14.5858 4.35519 14.6018 4.81599 14.7554C5.00799 14.8194 5.20319 14.941 5.43359 15.0818C5.98399 15.421 6.73919 15.8818 7.99999 15.8818C9.26079 15.8818 10.0192 15.4178 10.576 15.0754C10.8032 14.9346 11.0016 14.8162 11.184 14.7554C11.6448 14.605 12.048 14.589 12.4032 14.573C12.7968 14.557 13.168 14.5442 13.4976 14.317C13.6 14.2466 13.7312 14.1282 13.8336 13.949C13.9456 13.757 13.9424 13.6226 14.0512 13.5266C14.096 13.4882 14.1888 13.4562 14.24 13.4402C14.5088 13.3666 14.8512 13.2578 15.2544 13.037C15.4336 12.9378 15.5744 12.829 15.6832 12.7074L15.6864 12.7042C15.9904 12.3714 16.0672 11.9874 15.9424 11.6482ZM14.8224 12.2498C14.1376 12.6274 13.6832 12.5858 13.3312 12.8162C13.0304 13.0082 13.2096 13.4274 12.9888 13.5778C12.72 13.7634 11.9264 13.565 10.9056 13.9042C10.0608 14.1826 9.52319 14.9858 8.00319 14.9858C6.47999 14.9858 5.95519 14.1858 5.10079 13.9042C4.07679 13.565 3.28319 13.7634 3.01759 13.5778C2.79999 13.4274 2.97599 13.0114 2.67519 12.8162C2.32319 12.589 1.86559 12.6274 1.18399 12.2498C0.748791 12.0098 0.995191 11.8594 1.13919 11.789C3.61599 10.589 4.01279 8.7362 4.02879 8.5986C4.05119 8.4322 4.07359 8.301 3.89119 8.1314C3.71519 7.9682 2.92799 7.4818 2.71039 7.3314C2.34879 7.0786 2.19199 6.829 2.30719 6.5186C2.38719 6.3042 2.58879 6.2242 2.79999 6.2242C2.86399 6.2242 2.93119 6.2306 2.99519 6.2466C3.39199 6.333 3.77599 6.5314 3.99679 6.5858C4.02879 6.5922 4.05439 6.5954 4.07999 6.5954C4.19839 6.5954 4.23999 6.5346 4.23359 6.4002C4.20799 5.9682 4.14719 5.1234 4.21439 4.3362C4.30719 3.2514 4.65919 2.7138 5.07519 2.237C5.27359 2.0098 6.21119 1.0178 8.00639 1.0178C9.80479 1.0178 10.736 2.0066 10.9376 2.237C11.3536 2.7138 11.7024 3.2514 11.7984 4.3362C11.8656 5.1234 11.808 5.9682 11.7792 6.4002C11.7696 6.5442 11.8144 6.5954 11.9328 6.5954C11.9584 6.5954 11.984 6.5922 12.016 6.5858C12.2368 6.5314 12.624 6.333 13.0176 6.2466C13.0816 6.2338 13.1488 6.2242 13.2128 6.2242C13.424 6.2242 13.6224 6.3042 13.7056 6.5186C13.824 6.829 13.664 7.0786 13.3024 7.3314C13.0848 7.4818 12.3008 7.9682 12.1216 8.1314C11.9392 8.301 11.9616 8.4322 11.984 8.5986C12.0032 8.7394 12.3968 10.589 14.8736 11.789C15.0112 11.8594 15.2576 12.0098 14.8224 12.2498Z" fill="black"></path></svg>