<svg xmlns:xlink="http://www.w3.org/1999/xlink"  xmlns="http://www.w3.org/2000/svg" viewBox="0 0 16 16" style="background: transparent !important; border: none !important; border-collapse: separate !important; border-spacing: 0px !important; border-radius: 0px !important; inset: auto !important; box-shadow: none !important; box-sizing: border-box !important; caption-side: top !important; caret-color: auto !important; color: inherit !important; cursor: inherit !important; display: initial !important; direction: inherit !important; empty-cells: show !important; float: none !important; font-family: inherit !important; font-size: inherit !important; font-style: normal !important; font-variant: normal !important; font-weight: 400 !important; height: auto !important; letter-spacing: normal !important; line-break: normal !important; line-height: inherit !important; margin: 0px !important; opacity: 1 !important; orphans: 2 !important; outline: none !important; overflow: hidden !important; padding: 0px !important; paint-order: normal !important; perspective: none !important; pointer-events: inherit !important; position: relative !important; quotes: none !important; resize: none !important; rotate: none !important; scale: 1 !important; text-align: left !important; text-decoration: none !important; text-indent: 0px !important; text-transform: none !important; transform: initial !important; transform-box: content-box !important; transform-origin: center center !important; transform-style: flat !important; transition: all 0.25s ease 0s !important; user-select: none !important; vertical-align: top !important; visibility: visible !important; white-space: nowrap !important; word-break: normal !important; word-spacing: normal !important; writing-mode: horizontal-tb !important; z-index: auto !important;"><path d="M3.48769 4.28654H8.33112C8.50871 4.28654 8.65401 4.14123 8.65401 3.96364C8.65401 3.78605 8.50871 3.64075 8.33112 3.64075H3.48769C3.3101 3.64075 3.16479 3.78605 3.16479 3.96364C3.16479 4.14123 3.3101 4.28654 3.48769 4.28654Z M3.48769 6.54704H8.33112C8.50871 6.54704 8.65401 6.40173 8.65401 6.22414C8.65401 6.04655 8.50871 5.90125 8.33112 5.90125H3.48769C3.3101 5.90125 3.16479 6.04655 3.16479 6.22414C3.16479 6.40173 3.3101 6.54704 3.48769 6.54704Z M7.03954 8.16138H3.48769C3.3101 8.16138 3.16479 8.30668 3.16479 8.48427C3.16479 8.66186 3.3101 8.80717 3.48769 8.80717H7.03954C7.21713 8.80717 7.36243 8.66186 7.36243 8.48427C7.36243 8.30668 7.21713 8.16138 7.03954 8.16138Z M6.07085 10.4219H3.48769C3.3101 10.4219 3.16479 10.5672 3.16479 10.7448C3.16479 10.9224 3.3101 11.0677 3.48769 11.0677H6.07085C6.24844 11.0677 6.39375 10.9224 6.39375 10.7448C6.39375 10.5672 6.24844 10.4219 6.07085 10.4219Z M13.0128 8.85568V4.07683C13.0128 3.81851 12.916 3.57634 12.7222 3.39875L10.3651 1.02547C10.1875 0.831732 9.94532 0.734863 9.67086 0.734863H2.51873C1.98596 0.734863 1.55005 1.17077 1.55005 1.70355V14.2965C1.55005 14.8292 1.98596 15.2651 2.51873 15.2651H10.7849C10.801 15.2651 10.8171 15.2651 10.8171 15.2651C10.8494 15.2651 10.8656 15.2651 10.8979 15.2651C12.8514 15.2651 14.4497 13.6668 14.4497 11.7133C14.4659 10.5347 13.9008 9.50147 13.0128 8.85568ZM10.1068 1.67126L12.0764 3.64092H10.4297C10.2521 3.64092 10.1068 3.49562 10.1068 3.31803V1.67126ZM2.51873 14.6194C2.34114 14.6194 2.19584 14.4741 2.19584 14.2965V1.70355C2.19584 1.52596 2.34114 1.38065 2.51873 1.38065H9.46098V3.31803C9.46098 3.8508 9.89689 4.28671 10.4297 4.28671H12.367V8.4682C11.915 8.27447 11.4306 8.16145 10.914 8.16145C8.96049 8.16145 7.36216 9.75978 7.36216 11.7133C7.36216 12.908 7.95952 13.9736 8.87977 14.6194H2.51873ZM10.914 14.6194C9.31568 14.6194 8.00795 13.3116 8.00795 11.7133C8.00795 10.115 9.31568 8.80724 10.914 8.80724C12.5123 8.80724 13.8201 10.115 13.8201 11.7133C13.8201 13.3116 12.5123 14.6194 10.914 14.6194Z M10.9142 11.3905C10.7366 11.3905 10.5913 11.5358 10.5913 11.7134V13.3279C10.5913 13.5055 10.7366 13.6508 10.9142 13.6508C11.0918 13.6508 11.2371 13.5055 11.2371 13.3279V11.7134C11.2371 11.5358 11.0918 11.3905 10.9142 11.3905Z M10.9142 10.4215C11.0925 10.4215 11.2371 10.277 11.2371 10.0987C11.2371 9.92032 11.0925 9.77576 10.9142 9.77576C10.7359 9.77576 10.5913 9.92032 10.5913 10.0987C10.5913 10.277 10.7359 10.4215 10.9142 10.4215Z" fill="#000000" transform="translate(1,0)" stroke-width="0.5" stroke="#000000"></path></svg>